<svg xmlns="http://www.w3.org/2000/svg" viewBox="0 0 36 36">
  <path fill="#FFCC4D" d="M36 18c0 9.941-8.059 18-18 18-9.94 0-18-8.059-18-18C0 8.06 8.06 0 18 0c9.941 0 18 8.06 18 18"/>
  <path fill="#FF75C3" d="M30 18c0 6.627-5.373 12-12 12S6 24.627 6 18 11.373 6 18 6s12 5.373 12 12z"/>
  <path fill="#FFE8CD" d="M28.457 17.797c-.473-2.748-2.106-4.369-2.304-4.566-.198-.198-.377-.053-.337.234.333 2.407-.502 2.975-1.005 2.975s-.67-.284-1.423-.284c-.753 0-1.507.284-2.009.284s-.753-.234-1.507-.234-1.256.234-1.759.234c-.502 0-1.005-.177-1.507-.177s-.502.177-1.507.177c-.528 0-1.056-.275-1.584-.283-.726-.011-1.191.283-1.694.283-.502 0-.753-.283-1.423-.283-.45 0-.9.283-1.507.283s-2.188-2.26-2.094-5.018c.047-1.357.4-3.468 1.507-4.482 1.006-.92 1.675-1.437 3.431-1.437s4.604 2.211 6.779 2.211c2.009 0 3.348-.774 6.027-.774 2.261 0 3.825 1.572 4.733 2.918.908 1.346 1.29 5.018 1.19 7.939-.3.858-.62-.284-.42-.77z"/>
  <path fill="#FFE8CD" d="M28.457 17.797c-.473-2.748-2.106-4.369-2.304-4.566-.198-.198-.377-.053-.337.234.333 2.407-.502 2.975-1.005 2.975s-.67-.284-1.423-.284c-.753 0-1.507.284-2.009.284s-.753-.234-1.507-.234-1.256.234-1.759.234c-.502 0-1.005-.177-1.507-.177s-.502.177-1.507.177c-.528 0-1.056-.275-1.584-.283-.726-.011-1.191.283-1.694.283-.502 0-.753-.283-1.423-.283-.45 0-.9.283-1.507.283s-2.188-2.26-2.094-5.018c.047-1.357.4-3.468 1.507-4.482 1.006-.92 1.675-1.437 3.431-1.437s4.604 2.211 6.779 2.211c2.009 0 3.348-.774 6.027-.774 2.261 0 3.825 1.572 4.733 2.918.908 1.346 1.29 5.018 1.19 7.939-.3.858-.62-.284-.42-.77z"/>
  <path fill="#EF9645" d="M11.75 29.875c-1.042-.416-3.698-2.375-3.698-3.625 0-.713.479-1.072 1.583-1.417 1.104-.345 1.708-1.626 1.708-2.416 0-.791-.583-1.168-.75-1.168-.5 0-.525.25-1.25.25-.725 0-1.5-.25-1.5-1.5s.5-1.875 1.5-2c1-.125 1.375.615 1.375 0 0-.615-2.291-.286-2.791-3.036-.5-2.75 2.541-4.339 3.416-4.339.875 0 2.128.607 2.916 1.75.789 1.143 1.082 1.232 1.332 1.232s.668-.321 1.168-.857c.5-.535 1.582-2.018 2.582-2.018s1.708.143 2.375.893c.667.75 1.458 1.107 1.958 1.107s2.291-1.268 4.125-1.268 3.959 2.518 3.959 3.5c0 .982-.542 2.232-.542 3.232s.542 1.518.542 2.268c0 .749-.583 1.699-1.625 2.932-1.042 1.232-2.458 2.066-2.458 3.066s1.333 1.875 3.167 2.875c1.833 1 2.319 1.732 2.319 2.982s-.903 2.643-2.236 2.643-3.625-1.875-5.875-1.875-2.791 1.25-4.125 1.25-2.043-.947-2.293-1.697c-.25-.75-.25-2.053-1-2.053s-.75 1.303-1 2.053c-.25.75-1.082 1.572-1.957 1.572s-2.001-1.25-3.751-1.25-3.999 2-5.249 2-1.958-1.857-1.958-2.607 1.207-1.818 2.958-2.818z"/>
</svg> 